<svg width="137" height="45" viewBox="0 0 137 45" fill="none" xmlns="http://www.w3.org/2000/svg">
<g clip-path="url(#clip0)">
<rect width="136.047" height="45" transform="translate(0.953491)" fill="white"/>
<g clip-path="url(#clip1)">
<path d="M1.0729 4.22446H3.95205V20.9871C6.15939 18.4132 9.42242 16.7723 13.0693 16.7723C17.9959 16.7723 22.2186 19.7645 24.0741 24.0114H20.843C19.2435 21.4053 16.3644 19.6679 13.1013 19.6679C9.8383 19.6679 6.95915 21.4053 5.35963 24.0114H1.0729V4.22446ZM1.0729 33.6636V40.9027H3.95205V36.6879C6.15939 39.2619 9.42242 40.9027 13.0693 40.9027C17.9959 40.9027 22.2186 37.9105 24.0741 33.6636H20.843C19.2435 36.2697 16.3644 38.0071 13.1013 38.0071C9.8383 38.0071 6.95915 36.2697 5.35963 33.6636H1.0729Z" fill="#171718"/>
<path d="M40.2607 16.7717C43.9077 16.7717 47.1707 18.4126 49.378 20.9865V16.7717H52.2572V24.0109H48.0344C46.4349 21.4048 43.5558 19.6674 40.2927 19.6674C37.0297 19.6674 34.1506 21.4048 32.551 24.0109H29.288C31.1115 19.7639 35.3662 16.7717 40.2607 16.7717ZM29.288 33.6631C31.1434 37.91 35.3662 40.9022 40.2927 40.9022C43.9397 40.9022 47.2027 39.2613 49.41 36.6874V40.9022H52.2892V33.6631H48.0344C46.4349 36.2691 43.5558 38.0065 40.2927 38.0065C37.0297 38.0065 34.1506 36.2691 32.551 33.6631H29.288Z" fill="#171718"/>
<path d="M60.2549 16.7717H57.3757V24.0109H61.3106C62.7502 21.437 65.4693 19.7317 68.5724 19.7317C71.7075 19.7317 74.4267 21.4691 75.8343 24.0109H79.0014C77.3698 19.7961 73.307 16.8361 68.5724 16.8361C65.2774 16.8361 62.3023 18.2839 60.2549 20.5683V16.7717ZM79.7691 33.663H76.89V40.9343H79.7691V33.663ZM60.2549 33.663H57.3757V40.9022H60.2549V33.663Z" fill="#171718"/>
<path d="M107.858 4.22447H104.979V20.9871C102.771 18.4132 99.5082 16.7723 95.8613 16.7723C90.9348 16.7723 86.712 19.7645 84.8566 24.0114H88.0876C89.6872 21.4053 92.5663 19.6679 95.8293 19.6679C99.0924 19.6679 101.972 21.4053 103.571 24.0114H107.858V4.22447ZM107.858 33.6636H103.603C102.004 36.2697 99.1244 38.0071 95.8613 38.0071C92.5983 38.0071 89.7191 36.2697 88.1196 33.6636H84.8886C86.744 37.9106 90.9668 40.9027 95.8933 40.9027C99.5402 40.9027 102.803 39.2619 105.011 36.6879V40.9027H107.89V33.6636H107.858Z" fill="#171718"/>
<path d="M124.053 16.7717C127.7 16.7717 130.963 18.4126 133.17 20.9865V16.7717H136.05V24.0109H131.795C130.195 21.4048 127.316 19.6674 124.053 19.6674C120.79 19.6674 117.911 21.4048 116.311 24.0109H113.08C114.904 19.7639 119.127 16.7717 124.053 16.7717ZM113.048 33.6631C114.904 37.91 119.127 40.9022 124.053 40.9022C127.7 40.9022 130.963 39.2613 133.17 36.6874V40.9022H136.05V33.6631H131.795C130.195 36.2691 127.316 38.0065 124.053 38.0065C120.79 38.0065 117.911 36.2691 116.311 33.6631H113.048Z" fill="#171718"/>
<path d="M86.2997 28.2772L86.3073 28.3369H86.9614L86.9526 28.2606C86.9191 27.9674 86.7955 27.7284 86.5812 27.5484L86.5809 27.5481C86.3245 27.3352 85.9782 27.2327 85.55 27.2327C85.1026 27.2327 84.7515 27.3201 84.508 27.5054C84.2662 27.6878 84.1472 27.9476 84.1472 28.2752C84.1472 28.496 84.2049 28.6781 84.3288 28.8122L84.3297 28.8132C84.4503 28.9389 84.5994 29.0371 84.7756 29.1084C84.9476 29.1782 85.1329 29.2338 85.332 29.2754L85.3337 29.2757C85.5313 29.3117 85.7128 29.3543 85.878 29.4034L85.8797 29.4039C86.0421 29.4478 86.1727 29.5063 86.2736 29.5777L86.2763 29.5794C86.3692 29.6388 86.4149 29.7232 86.4149 29.8417C86.4149 29.9335 86.3912 30.0078 86.3466 30.0682C86.3016 30.1291 86.2317 30.1808 86.1316 30.2205C86.0412 30.2549 85.9488 30.2786 85.8543 30.2915C85.7577 30.3046 85.652 30.3113 85.5365 30.3113C85.4306 30.3113 85.3218 30.2944 85.21 30.2601C85.0582 30.2086 84.9453 30.1348 84.8666 30.0411C84.7881 29.9475 84.7404 29.8299 84.7256 29.6849L84.7193 29.6234H84.0546L84.0587 29.6958C84.0779 30.0368 84.2181 30.3158 84.4784 30.528C84.7616 30.7679 85.1394 30.8842 85.6047 30.8842C86.0398 30.8842 86.393 30.7964 86.658 30.6134L86.6587 30.6129C86.9279 30.4218 87.0622 30.1457 87.0622 29.7941C87.0622 29.5684 87.0018 29.3823 86.8742 29.2439C86.7577 29.1131 86.6105 29.0122 86.4345 28.9407C86.2617 28.8661 86.0733 28.8104 85.8694 28.7733C85.6757 28.7327 85.4956 28.6899 85.3293 28.645C85.1664 28.6009 85.0323 28.5465 84.9258 28.4829C84.8377 28.4235 84.7941 28.3412 84.7941 28.2275C84.7941 28.0861 84.8485 27.9863 84.9578 27.9179C85.0724 27.8462 85.253 27.8057 85.5093 27.8057C85.7665 27.8057 85.9552 27.8492 86.083 27.9283C86.2073 28.0053 86.2794 28.1192 86.2997 28.2772Z" fill="#171718"/>
<path d="M53.4271 29.0571C53.4271 28.1454 52.6879 27.4025 51.7807 27.4025C51.1624 27.4025 50.6584 27.7469 50.4031 28.2534V27.5376H50.1343V32.0279H50.3893L50.4031 29.8607C50.6584 30.3672 51.1624 30.7116 51.7807 30.7116C52.6879 30.7116 53.4271 29.9688 53.4271 29.0571ZM53.1583 29.0571C53.1583 29.8404 52.5401 30.4753 51.7807 30.4753C51.0213 30.4753 50.4031 29.8404 50.4031 29.0571C50.4031 28.2737 51.0213 27.6389 51.7807 27.6389C52.5401 27.6389 53.1583 28.2737 53.1583 29.0571Z" fill="#171718"/>
<path fill-rule="evenodd" clip-rule="evenodd" d="M50.3893 32.0279H50.1343V27.5376H50.4031V28.2534C50.4513 28.1577 50.5084 28.0678 50.5735 27.9849C50.8529 27.6291 51.2792 27.4025 51.7807 27.4025C52.6879 27.4025 53.4271 28.1454 53.4271 29.0571C53.4271 29.9688 52.6879 30.7116 51.7807 30.7116C51.2792 30.7116 50.8529 30.4851 50.5735 30.1292C50.5084 30.0463 50.4513 29.9564 50.4031 29.8607L50.3893 32.0279ZM50.5735 30.3866L50.5735 32.0279H49.9638V27.3587H50.5735V27.7275C50.8789 27.4205 51.299 27.2312 51.7807 27.2312C52.7821 27.2312 53.5976 28.0507 53.5976 29.0571C53.5976 30.0634 52.7821 30.8829 51.7807 30.8829C51.299 30.8829 50.8789 30.6936 50.5735 30.3866ZM51.7807 30.304C52.4422 30.304 52.9879 29.7496 52.9879 29.0571C52.9879 28.3645 52.4422 27.8101 51.7807 27.8101C51.1192 27.8101 50.5735 28.3645 50.5735 29.0571C50.5735 29.7496 51.1192 30.304 51.7807 30.304ZM51.7807 30.4753C52.5401 30.4753 53.1583 29.8404 53.1583 29.0571C53.1583 28.2737 52.5401 27.6389 51.7807 27.6389C51.0213 27.6389 50.4031 28.2737 50.4031 29.0571C50.4031 29.8404 51.0213 30.4753 51.7807 30.4753Z" fill="#171718"/>
<path d="M58.5974 26.4591L58.3286 26.4591V26.7563H58.5974V26.4591ZM58.5974 27.6723H58.3286V30.7113H58.5974V27.6723Z" fill="#171718"/>
<path fill-rule="evenodd" clip-rule="evenodd" d="M58.7678 26.2878V26.9276H58.1581V26.2878L58.7678 26.2878ZM58.7678 27.501V30.8826H58.1581V27.501H58.7678ZM58.5974 26.7563H58.3286V26.4591L58.5974 26.4591V26.7563ZM58.3286 27.6723H58.5974V30.7113H58.3286V27.6723Z" fill="#171718"/>
<path d="M65.1009 29.1933L66.371 27.6738H66.0283L64.9329 28.9907L63.8308 27.6738H63.4881L64.7582 29.1933L63.4881 30.7128H63.8308L64.9329 29.3959L66.0283 30.7128H66.371L65.1009 29.1933Z" fill="#171718"/>
<path fill-rule="evenodd" clip-rule="evenodd" d="M63.8308 27.6738L64.9329 28.9907L66.0283 27.6738H66.371L65.1009 29.1933L66.371 30.7128H66.0283L64.9329 29.3959L63.8308 30.7128H63.4881L64.7582 29.1933L63.4881 27.6738H63.8308ZM64.5356 29.1933L63.1223 27.5026H63.9102L64.9325 28.7241L65.9486 27.5026H66.7368L65.3235 29.1933L66.7368 30.8841H65.9486L64.9325 29.6626L63.9102 30.8841H63.1223L64.5356 29.1933Z" fill="#171718"/>
<path d="M73.0027 30.355C73.4714 30.355 73.8078 30.2114 74.012 29.8307H74.5828C74.4621 30.1389 74.2695 30.3414 74.005 30.5318C73.7451 30.7221 73.4087 30.8173 72.9957 30.8173C72.4713 30.8173 72.0444 30.6473 71.7149 30.3074C71.3947 29.9766 71.2346 29.562 71.2346 29.0635C71.2346 28.5604 71.3877 28.1458 71.694 27.8195C72.0189 27.4796 72.4411 27.3096 72.9609 27.3096C73.4806 27.3096 73.9029 27.4796 74.2278 27.8195C74.534 28.1458 74.6872 28.5604 74.6872 29.0635V29.2674H71.7706C71.8077 29.5801 71.9353 29.8384 72.1534 30.0423C72.3762 30.2508 72.6593 30.355 73.0027 30.355ZM72.9609 27.7719C72.6407 27.7719 72.3715 27.8693 72.1534 28.0642C71.9492 28.25 71.824 28.4924 71.7775 28.7915H74.1442C74.0978 28.4924 73.9725 28.25 73.7683 28.0642C73.5502 27.8693 73.2811 27.7719 72.9609 27.7719Z" fill="#171718"/>
<path fill-rule="evenodd" clip-rule="evenodd" d="M73.9672 29.7554H74.6928L74.6525 29.8583C74.525 30.184 74.3208 30.3971 74.0489 30.5928C73.773 30.7948 73.4199 30.8926 72.9957 30.8926C72.4535 30.8926 72.0064 30.7161 71.6612 30.36C71.3262 30.0139 71.1596 29.5799 71.1596 29.0635C71.1596 28.5437 71.3184 28.1098 71.6395 27.7678L71.6399 27.7673C71.9805 27.4109 72.4232 27.2343 72.9609 27.2343C73.4986 27.2343 73.9413 27.4109 74.2818 27.7673L74.2823 27.7678C74.6033 28.1098 74.7622 28.5437 74.7622 29.0635V29.3427H71.8576C71.9041 29.6007 72.0198 29.8145 72.2045 29.9872C72.4116 30.181 72.6756 30.2797 73.0027 30.2797C73.2299 30.2797 73.4188 30.2448 73.5733 30.1681C73.7266 30.092 73.8507 29.9726 73.946 29.795L73.9672 29.7554ZM71.7815 29.3427C71.7772 29.318 71.7736 29.2929 71.7706 29.2674H74.6872V29.0635C74.6872 28.5604 74.534 28.1458 74.2278 27.8195C73.9029 27.4796 73.4806 27.3096 72.9609 27.3096C72.4411 27.3096 72.0189 27.4796 71.694 27.8195C71.3877 28.1458 71.2346 28.5604 71.2346 29.0635C71.2346 29.562 71.3947 29.9766 71.7149 30.3074C72.0444 30.6473 72.4713 30.8173 72.9957 30.8173C73.4087 30.8173 73.7451 30.7221 74.005 30.5318C74.2474 30.3574 74.4293 30.1727 74.5509 29.906C74.562 29.8816 74.5727 29.8565 74.5828 29.8307H74.012C73.8078 30.2114 73.4714 30.355 73.0027 30.355C72.6593 30.355 72.3762 30.2508 72.1534 30.0423C71.9531 29.855 71.8291 29.6218 71.7815 29.3427ZM72.2035 28.1203C72.0333 28.2753 71.921 28.4729 71.8678 28.7162H74.054C74.0008 28.4729 73.8885 28.2753 73.7183 28.1203C73.5153 27.939 73.2645 27.8472 72.9609 27.8472C72.6573 27.8472 72.4065 27.939 72.2035 28.1203ZM73.7683 28.0642C73.9551 28.2341 74.0759 28.4515 74.1306 28.7162C74.1357 28.7409 74.1403 28.766 74.1442 28.7915H71.7775C71.7815 28.766 71.786 28.7409 71.7912 28.7162C71.8459 28.4515 71.9667 28.2341 72.1534 28.0642C72.3715 27.8693 72.6407 27.7719 72.9609 27.7719C73.2811 27.7719 73.5502 27.8693 73.7683 28.0642Z" fill="#171718"/>
<path d="M79.5062 26.4607H79.2374V30.7131H79.5062V26.4607Z" fill="#171718"/>
<path fill-rule="evenodd" clip-rule="evenodd" d="M79.6767 26.2894V30.8844H79.067V26.2894H79.6767ZM79.2374 26.4607H79.5062V30.7131H79.2374V26.4607Z" fill="#171718"/>
</g>
</g>
<defs>
<clipPath id="clip0">
<rect width="136.047" height="45" fill="white" transform="translate(0.953491)"/>
</clipPath>
<clipPath id="clip1">
<rect width="135" height="37" fill="white" transform="translate(1 4)"/>
</clipPath>
</defs>
</svg>
