<?xml version="1.0" encoding="utf-8"?>
<!-- Generator: Adobe Illustrator 16.0.4, SVG Export Plug-In . SVG Version: 6.00 Build 0)  -->
<!DOCTYPE svg PUBLIC "-//W3C//DTD SVG 1.1//EN" "http://www.w3.org/Graphics/SVG/1.1/DTD/svg11.dtd">
<svg version="1.1" xmlns="http://www.w3.org/2000/svg" xmlns:xlink="http://www.w3.org/1999/xlink" x="0px" y="0px" width="40px"
     height="40px" viewBox="0 0 40 40" enable-background="new 0 0 240 160" xml:space="preserve">
 <g>
		<g>
			<path fill="#FFFFFF" d="M20,5.777c7.842,0,14.223,6.381,14.223,14.223S27.842,34.223,20,34.223
				c-7.841,0-14.223-6.381-14.223-14.223S12.159,5.777,20,5.777 M20,4C11.164,4,4,11.164,4,20s7.164,16,16,16s16-7.164,16-16
				S28.836,4,20,4L20,4z"/>
		</g>
   <g>
			<polygon fill="#FFFFFF" points="28.205,22.564 26.898,23.869 20.004,16.965 13.101,23.867 11.796,22.562 20.004,14.352 			"/>
		</g>
	</g>
</svg>
