<?xml version="1.0" encoding="UTF-8"?>
<svg id="a" data-name="Слой 2" xmlns="http://www.w3.org/2000/svg" width="42.869mm" height="15.324mm" viewBox="0 0 121.517 43.438">
  <path d="m0,.72h.84c2.22,0,9.66-.18,12.419-.18,16.799,0,23.579,9.66,23.579,20.819,0,11.76-8.039,21.479-24.059,21.479-2.22,0-7.74-.12-11.759-.12H0V.72Zm9.6,8.999v23.999c1.26.12,2.1.12,3.479.12,8.28,0,13.56-4.499,13.56-12.479,0-7.739-5.7-11.819-13.499-11.819-1.02,0-2.34,0-3.54.18Z"/>
  <path d="m61.338,0c12.779,0,22.319,8.34,22.319,21.719,0,12.719-9.54,21.719-22.319,21.719s-22.319-8.339-22.319-21.719C39.019,9.539,47.958,0,61.338,0Zm0,34.438c7.98,0,12.119-5.64,12.119-12.719,0-7.68-5.34-12.72-12.119-12.72-6.96,0-12.119,5.04-12.119,12.72,0,7.2,5.399,12.719,12.119,12.719Z"/>
  <path d="m121.517,25.379c0,12.839-8.159,18.059-17.159,18.059-10.8,0-18.299-6.18-18.299-18.479V.72h9.6v22.199c0,6.54,1.979,11.52,8.699,11.52,5.82,0,7.56-4.26,7.56-10.979V.72h9.6v24.659Z"/>
</svg>